<svg width="230" height="230" viewBox="0 0 230 230" fill="none" xmlns="http://www.w3.org/2000/svg">
<path d="M80.2604 193.104H149.74V163.875C149.74 152.854 146.545 143.111 140.156 134.646C133.767 126.181 125.382 121.948 115 121.948C104.618 121.948 96.2326 126.181 89.8438 134.646C83.4549 143.111 80.2604 152.854 80.2604 163.875V193.104ZM115 108.052C125.382 108.052 133.767 103.819 140.156 95.3542C146.545 86.8889 149.74 77.1458 149.74 66.125V36.8958H80.2604V66.125C80.2604 77.1458 83.4549 86.8889 89.8438 95.3542C96.2326 103.819 104.618 108.052 115 108.052V108.052ZM53.1875 198.375V193.104H74.9896V163.875C74.9896 151.896 78.5035 141.274 85.5313 132.01C92.559 122.747 101.903 117.076 113.563 115C101.903 112.924 92.559 107.214 85.5313 97.8698C78.5035 88.526 74.9896 77.9444 74.9896 66.125V36.8958H53.1875V31.625H176.813V36.8958H155.01V66.125C155.01 77.9444 151.497 88.526 144.469 97.8698C137.441 107.214 128.097 112.924 116.437 115C128.097 117.076 137.441 122.747 144.469 132.01C151.497 141.274 155.01 151.896 155.01 163.875V193.104H176.813V198.375H53.1875Z" fill="white"/>
</svg>
