<svg width="230" height="230" viewBox="0 0 230 230" fill="none" xmlns="http://www.w3.org/2000/svg">
<path d="M108.531 159.562C97.5104 157.806 88.3264 152.774 80.9792 144.469C73.6319 136.163 69.9583 126.34 69.9583 115C69.9583 102.382 74.3108 91.7205 83.0156 83.0156C91.7205 74.3108 102.382 69.9583 115 69.9583C126.34 69.9583 136.163 73.592 144.469 80.8594C152.774 88.1267 157.806 97.2708 159.562 108.292L153.573 106.615C151.656 97.5104 147.144 90.0035 140.036 84.0937C132.929 78.184 124.583 75.2292 115 75.2292C103.979 75.2292 94.5955 79.1024 86.849 86.849C79.1024 94.5955 75.2292 103.979 75.2292 115C75.2292 124.583 78.224 132.969 84.2135 140.156C90.2031 147.344 97.6701 151.896 106.615 153.812L108.531 159.562ZM120.031 198.135C119.233 198.295 118.394 198.375 117.516 198.375H115C103.5 198.375 92.6788 196.179 82.5365 191.786C72.3941 187.394 63.5694 181.444 56.0625 173.937C48.5556 166.431 42.6059 157.606 38.2135 147.464C33.8212 137.321 31.625 126.5 31.625 115C31.625 103.5 33.8212 92.6788 38.2135 82.5365C42.6059 72.3941 48.5556 63.5694 56.0625 56.0625C63.5694 48.5556 72.3941 42.6059 82.5365 38.2135C92.6788 33.8212 103.5 31.625 115 31.625C126.5 31.625 137.321 33.8212 147.464 38.2135C157.606 42.6059 166.431 48.5556 173.937 56.0625C181.444 63.5694 187.394 72.3941 191.786 82.5365C196.179 92.6788 198.375 103.5 198.375 115V117.396C198.375 118.194 198.295 118.993 198.135 119.792L193.104 118.354V115C193.104 93.2778 185.517 74.8299 170.344 59.6562C155.17 44.4826 136.722 36.8958 115 36.8958C93.2778 36.8958 74.8299 44.4826 59.6562 59.6562C44.4826 74.8299 36.8958 93.2778 36.8958 115C36.8958 136.722 44.4826 155.17 59.6562 170.344C74.8299 185.517 93.2778 193.104 115 193.104H118.354L120.031 198.135ZM187.115 194.302L139.677 146.625L131.771 170.583L115 115L170.583 131.771L146.625 139.677L194.302 187.115L187.115 194.302Z" fill="white"/>
</svg>
