<svg width="26" height="26" viewBox="0 0 26 26" fill="none" xmlns="http://www.w3.org/2000/svg">
<path d="M12.9188 22.75C10.2285 22.75 7.94444 21.7976 6.06667 19.8927C4.18889 17.9878 3.25 15.6813 3.25 12.9729H4.875C4.875 15.2299 5.65139 17.1528 7.20417 18.7417C8.75694 20.3306 10.6618 21.125 12.9188 21.125C15.2118 21.125 17.1528 20.3215 18.7417 18.7146C20.3306 17.1076 21.125 15.1576 21.125 12.8646C21.125 10.6257 20.3215 8.73437 18.7146 7.19062C17.1076 5.64687 15.1757 4.875 12.9188 4.875C11.691 4.875 10.5399 5.15486 9.46563 5.71458C8.39132 6.27431 7.45694 7.01458 6.6625 7.93542H9.50625V9.56042H3.84583V3.92708H5.47083V6.79792C6.40972 5.69653 7.52465 4.82986 8.81562 4.19792C10.1066 3.56597 11.4743 3.25 12.9188 3.25C14.2729 3.25 15.5458 3.50278 16.7375 4.00833C17.9292 4.51389 18.9719 5.20451 19.8656 6.08021C20.7594 6.9559 21.4635 7.98056 21.9781 9.15417C22.4927 10.3278 22.75 11.5917 22.75 12.9458C22.75 14.3 22.4927 15.5729 21.9781 16.7646C21.4635 17.9563 20.7594 18.9944 19.8656 19.8792C18.9719 20.7639 17.9292 21.4635 16.7375 21.9781C15.5458 22.4927 14.2729 22.75 12.9188 22.75ZM16.3854 17.4146L12.2146 13.2979V7.50208H13.8396V12.6208L17.55 16.25L16.3854 17.4146Z" fill="white"/>
</svg>
