<svg width="230" height="230" viewBox="0 0 230 230" fill="none" xmlns="http://www.w3.org/2000/svg">
<path d="M115 210.834C103.021 210.834 91.8003 208.598 81.3385 204.125C70.8767 199.653 61.7326 193.504 53.9062 185.677C46.0799 177.851 39.9306 168.707 35.4583 158.245C30.9861 147.783 28.75 136.563 28.75 124.584H43.125C43.125 144.549 50.1128 161.519 64.0885 175.495C78.0642 189.471 95.0347 196.459 115 196.459C134.965 196.459 151.936 189.471 165.911 175.495C179.887 161.519 186.875 144.549 186.875 124.584C186.875 104.618 180.087 87.6479 166.51 73.6722C152.934 59.6965 136.163 52.7087 116.198 52.7087H110.687L128.177 70.1982L118.354 80.2607L83.1354 45.042L118.354 9.82324L128.177 19.6462L109.49 38.3337H115C126.979 38.3337 138.2 40.5698 148.661 45.042C159.123 49.5142 168.267 55.6635 176.094 63.4899C183.92 71.3163 190.069 80.4604 194.542 90.9222C199.014 101.384 201.25 112.604 201.25 124.584C201.25 136.563 199.014 147.783 194.542 158.245C190.069 168.707 183.92 177.851 176.094 185.677C168.267 193.504 159.123 199.653 148.661 204.125C138.2 208.598 126.979 210.834 115 210.834Z" fill="white"/>
</svg>
