<svg width="150" height="150" viewBox="0 0 150 150" fill="none" xmlns="http://www.w3.org/2000/svg">
<path d="M59.375 13.75V10.3125H90.625V13.75H59.375ZM73.2813 83.75H76.7188V52.9688H73.2813V83.75ZM75 129.375C68.3333 129.375 62.0833 128.099 56.25 125.547C50.4167 122.995 45.3125 119.557 40.9375 115.234C36.5625 110.911 33.125 105.807 30.625 99.9219C28.125 94.0365 26.875 87.7604 26.875 81.0938C26.875 74.5313 28.125 68.3333 30.625 62.5C33.125 56.6667 36.5625 51.5625 40.9375 47.1875C45.3125 42.8125 50.4167 39.375 56.25 36.875C62.0833 34.375 68.3333 33.125 75 33.125C81.1458 33.125 87.0313 34.2448 92.6563 36.4844C98.2813 38.724 103.333 41.875 107.813 45.9375L113.75 39.8437L116.25 42.3438L110.156 48.4375C114.115 52.6042 117.266 57.474 119.609 63.0469C121.953 68.6198 123.125 74.6875 123.125 81.25C123.125 87.8125 121.875 94.0365 119.375 99.9219C116.875 105.807 113.438 110.911 109.063 115.234C104.688 119.557 99.5833 122.995 93.75 125.547C87.9167 128.099 81.6667 129.375 75 129.375ZM75 125.938C87.3958 125.938 97.9427 121.589 106.641 112.891C115.339 104.193 119.688 93.6458 119.688 81.25C119.688 68.8542 115.339 58.3073 106.641 49.6094C97.9427 40.9115 87.3958 36.5625 75 36.5625C62.6042 36.5625 52.0573 40.9115 43.3594 49.6094C34.6615 58.3073 30.3125 68.8542 30.3125 81.25C30.3125 93.6458 34.6615 104.193 43.3594 112.891C52.0573 121.589 62.6042 125.938 75 125.938Z" fill="white"/>
</svg>
